<?xml version="1.0" encoding="UTF-8"?>
<svg xmlns="http://www.w3.org/2000/svg" xmlns:xlink="http://www.w3.org/1999/xlink" width="50px" height="14px" viewBox="0 0 50 14" version="1.1">
<defs>
<filter id="alpha" filterUnits="objectBoundingBox" x="0%" y="0%" width="100%" height="100%">
  <feColorMatrix type="matrix" in="SourceGraphic" values="0 0 0 0 1 0 0 0 0 1 0 0 0 0 1 0 0 0 1 0"/>
</filter>
<mask id="mask0">
  <g filter="url(#alpha)">
<rect x="0" y="0" width="50" height="14" style="fill:rgb(0%,0%,0%);fill-opacity:0.6;stroke:none;"/>
  </g>
</mask>
<clipPath id="clip1">
  <rect x="0" y="0" width="50" height="14"/>
</clipPath>
<g id="surface5" clip-path="url(#clip1)">
<path style=" stroke:none;fill-rule:nonzero;fill:rgb(100%,34.509805%,30.980393%);fill-opacity:1;" d="M 30.929688 13.71875 L 19.070312 13.71875 C 19.070312 13.71875 21.722656 1.859375 25 1.859375 C 28.277344 1.859375 30.929688 13.71875 30.929688 13.71875 "/>
</g>
<mask id="mask1">
  <g filter="url(#alpha)">
<rect x="0" y="0" width="50" height="14" style="fill:rgb(0%,0%,0%);fill-opacity:0.6;stroke:none;"/>
  </g>
</mask>
<clipPath id="clip2">
  <rect x="0" y="0" width="50" height="14"/>
</clipPath>
<g id="surface8" clip-path="url(#clip2)">
<path style=" stroke:none;fill-rule:nonzero;fill:rgb(33.333334%,69.01961%,100%);fill-opacity:1;" d="M 19.070312 0.28125 L 30.929688 0.28125 C 30.929688 0.28125 28.273438 12.140625 25 12.140625 C 21.722656 12.140625 19.070312 0.28125 19.070312 0.28125 "/>
</g>
</defs>
<g id="surface1">
<use xlink:href="#surface5" mask="url(#mask0)"/>
<use xlink:href="#surface8" mask="url(#mask1)"/>
<path style=" stroke:none;fill-rule:nonzero;fill:rgb(0%,14.117648%,26.274511%);fill-opacity:1;" d="M 25.484375 7.238281 L 25.484375 7.695312 C 25.59375 7.703125 25.785156 7.710938 26.0625 7.710938 C 26.578125 7.710938 27.039062 7.691406 27.445312 7.660156 L 27.644531 7.644531 L 27.644531 10.109375 C 27.113281 10.296875 26.355469 10.390625 25.371094 10.390625 C 24.390625 10.390625 23.640625 10.140625 23.121094 9.640625 C 22.597656 9.140625 22.339844 8.394531 22.339844 7.410156 C 22.339844 6.421875 22.59375 5.695312 23.105469 5.226562 C 23.617188 4.757812 24.378906 4.523438 25.390625 4.523438 C 25.816406 4.523438 26.214844 4.550781 26.59375 4.597656 C 26.96875 4.648438 27.238281 4.699219 27.398438 4.746094 L 27.644531 4.820312 L 27.644531 7.363281 C 27.167969 7.28125 26.445312 7.238281 25.484375 7.238281 "/>
</g>
</svg>
